<svg width="244" height="40" viewBox="0 0 244 40" fill="none" xmlns="http://www.w3.org/2000/svg">
<path d="M11.66 13V27H9.8V14.76H3.36V27H1.5V13H11.66ZM22.9241 25.74C21.8974 26.7533 20.6507 27.26 19.1841 27.26C17.7174 27.26 16.4707 26.7533 15.4441 25.74C14.4307 24.7267 13.9241 23.48 13.9241 22C13.9241 20.52 14.4307 19.2733 15.4441 18.26C16.4707 17.2467 17.7174 16.74 19.1841 16.74C20.6507 16.74 21.8974 17.2467 22.9241 18.26C23.9507 19.2733 24.4641 20.52 24.4641 22C24.4641 23.48 23.9507 24.7267 22.9241 25.74ZM19.1841 25.56C20.1841 25.56 21.0241 25.22 21.7041 24.54C22.3841 23.86 22.7241 23.0133 22.7241 22C22.7241 20.9867 22.3841 20.14 21.7041 19.46C21.0241 18.78 20.1841 18.44 19.1841 18.44C18.1974 18.44 17.3641 18.78 16.6841 19.46C16.0041 20.14 15.6641 20.9867 15.6641 22C15.6641 23.0133 16.0041 23.86 16.6841 24.54C17.3641 25.22 18.1974 25.56 19.1841 25.56ZM31.2153 27.26C29.7086 27.26 28.4553 26.76 27.4553 25.76C26.4553 24.7467 25.9553 23.4933 25.9553 22C25.9553 20.5067 26.4553 19.26 27.4553 18.26C28.4553 17.2467 29.7086 16.74 31.2153 16.74C32.202 16.74 33.0886 16.98 33.8753 17.46C34.662 17.9267 35.2486 18.56 35.6353 19.36L34.1753 20.2C33.922 19.6667 33.5286 19.24 32.9953 18.92C32.4753 18.6 31.882 18.44 31.2153 18.44C30.2153 18.44 29.3753 18.78 28.6953 19.46C28.0286 20.14 27.6953 20.9867 27.6953 22C27.6953 23 28.0286 23.84 28.6953 24.52C29.3753 25.2 30.2153 25.54 31.2153 25.54C31.882 25.54 32.482 25.3867 33.0153 25.08C33.5486 24.76 33.9553 24.3333 34.2353 23.8L35.7153 24.66C35.2886 25.4467 34.6753 26.08 33.8753 26.56C33.0753 27.0267 32.1886 27.26 31.2153 27.26ZM47.4528 17V27H45.7528V19.74L42.5728 24.86H42.3528L39.1728 19.74V27H37.4528V17H39.3128L42.4528 22.06L45.5928 17H47.4528ZM58.5491 25.74C57.5224 26.7533 56.2757 27.26 54.8091 27.26C53.3424 27.26 52.0957 26.7533 51.0691 25.74C50.0557 24.7267 49.5491 23.48 49.5491 22C49.5491 20.52 50.0557 19.2733 51.0691 18.26C52.0957 17.2467 53.3424 16.74 54.8091 16.74C56.2757 16.74 57.5224 17.2467 58.5491 18.26C59.5757 19.2733 60.0891 20.52 60.0891 22C60.0891 23.48 59.5757 24.7267 58.5491 25.74ZM54.8091 25.56C55.8091 25.56 56.6491 25.22 57.3291 24.54C58.0091 23.86 58.3491 23.0133 58.3491 22C58.3491 20.9867 58.0091 20.14 57.3291 19.46C56.6491 18.78 55.8091 18.44 54.8091 18.44C53.8224 18.44 52.9891 18.78 52.3091 19.46C51.6291 20.14 51.2891 20.9867 51.2891 22C51.2891 23.0133 51.6291 23.86 52.3091 24.54C52.9891 25.22 53.8224 25.56 54.8091 25.56ZM69.1897 17V18.68H65.7897V27H64.0497V18.68H60.6297V17H69.1897ZM76.2345 16.74C77.6345 16.74 78.8279 17.2533 79.8145 18.28C80.8012 19.2933 81.2945 20.5333 81.2945 22C81.2945 23.4667 80.8012 24.7133 79.8145 25.74C78.8279 26.7533 77.6345 27.26 76.2345 27.26C74.5812 27.26 73.3212 26.6 72.4545 25.28V31H70.7145V17H72.4545V18.72C73.3212 17.4 74.5812 16.74 76.2345 16.74ZM76.0145 25.58C77.0145 25.58 77.8545 25.24 78.5345 24.56C79.2145 23.8667 79.5545 23.0133 79.5545 22C79.5545 20.9867 79.2145 20.14 78.5345 19.46C77.8545 18.7667 77.0145 18.42 76.0145 18.42C75.0012 18.42 74.1545 18.7667 73.4745 19.46C72.7945 20.14 72.4545 20.9867 72.4545 22C72.4545 23.0133 72.7945 23.8667 73.4745 24.56C74.1545 25.24 75.0012 25.58 76.0145 25.58ZM84.5908 22.8C84.7641 23.6933 85.1708 24.3867 85.8108 24.88C86.4641 25.3733 87.2641 25.62 88.2108 25.62C89.5308 25.62 90.4908 25.1333 91.0908 24.16L92.5708 25C91.5974 26.5067 90.1308 27.26 88.1708 27.26C86.5841 27.26 85.2908 26.7667 84.2908 25.78C83.3041 24.78 82.8108 23.52 82.8108 22C82.8108 20.4933 83.2974 19.24 84.2708 18.24C85.2441 17.24 86.5041 16.74 88.0508 16.74C89.5174 16.74 90.7108 17.26 91.6308 18.3C92.5641 19.3267 93.0308 20.5667 93.0308 22.02C93.0308 22.2733 93.0108 22.5333 92.9708 22.8H84.5908ZM88.0508 18.38C87.1174 18.38 86.3441 18.6467 85.7308 19.18C85.1174 19.7 84.7374 20.4 84.5908 21.28H91.2708C91.1241 20.3333 90.7508 19.6133 90.1508 19.12C89.5508 18.6267 88.8508 18.38 88.0508 18.38ZM102.08 17V18.68H98.6803V27H96.9403V18.68H93.5203V17H102.08ZM107.825 20.6C108.825 20.6 109.652 20.9 110.305 21.5C110.972 22.0867 111.305 22.8533 111.305 23.8C111.305 24.7467 110.972 25.52 110.305 26.12C109.652 26.7067 108.825 27 107.825 27H103.605V17H105.345V20.6H107.825ZM107.825 25.38C108.318 25.38 108.732 25.24 109.065 24.96C109.412 24.6667 109.585 24.28 109.585 23.8C109.585 23.32 109.412 22.9333 109.065 22.64C108.732 22.3467 108.318 22.2 107.825 22.2H105.345V25.38H107.825ZM124.835 21.86C125.862 22.2867 126.375 23.06 126.375 24.18C126.375 25.0067 126.095 25.6867 125.535 26.22C124.989 26.74 124.202 27 123.175 27H118.175V17H122.775C123.775 17 124.549 17.2533 125.095 17.76C125.642 18.2533 125.915 18.9067 125.915 19.72C125.915 20.68 125.555 21.3933 124.835 21.86ZM122.695 18.56H119.875V21.18H122.695C123.709 21.18 124.215 20.7333 124.215 19.84C124.215 18.9867 123.709 18.56 122.695 18.56ZM123.075 25.42C123.582 25.42 123.969 25.3 124.235 25.06C124.515 24.82 124.655 24.48 124.655 24.04C124.655 23.6267 124.515 23.3067 124.235 23.08C123.969 22.84 123.582 22.72 123.075 22.72H119.875V25.42H123.075ZM132.954 27.26C131.447 27.26 130.194 26.76 129.194 25.76C128.194 24.7467 127.694 23.4933 127.694 22C127.694 20.5067 128.194 19.26 129.194 18.26C130.194 17.2467 131.447 16.74 132.954 16.74C133.94 16.74 134.827 16.98 135.614 17.46C136.4 17.9267 136.987 18.56 137.374 19.36L135.914 20.2C135.66 19.6667 135.267 19.24 134.734 18.92C134.214 18.6 133.62 18.44 132.954 18.44C131.954 18.44 131.114 18.78 130.434 19.46C129.767 20.14 129.434 20.9867 129.434 22C129.434 23 129.767 23.84 130.434 24.52C131.114 25.2 131.954 25.54 132.954 25.54C133.62 25.54 134.22 25.3867 134.754 25.08C135.287 24.76 135.694 24.3333 135.974 23.8L137.454 24.66C137.027 25.4467 136.414 26.08 135.614 26.56C134.814 27.0267 133.927 27.26 132.954 27.26ZM140.255 22.8C140.428 23.6933 140.835 24.3867 141.475 24.88C142.128 25.3733 142.928 25.62 143.875 25.62C145.195 25.62 146.155 25.1333 146.755 24.16L148.235 25C147.262 26.5067 145.795 27.26 143.835 27.26C142.248 27.26 140.955 26.7667 139.955 25.78C138.968 24.78 138.475 23.52 138.475 22C138.475 20.4933 138.962 19.24 139.935 18.24C140.908 17.24 142.168 16.74 143.715 16.74C145.182 16.74 146.375 17.26 147.295 18.3C148.228 19.3267 148.695 20.5667 148.695 22.02C148.695 22.2733 148.675 22.5333 148.635 22.8H140.255ZM143.715 18.38C142.782 18.38 142.008 18.6467 141.395 19.18C140.782 19.7 140.402 20.4 140.255 21.28H146.935C146.788 20.3333 146.415 19.6133 145.815 19.12C145.215 18.6267 144.515 18.38 143.715 18.38ZM158.906 27H156.866L154.066 23.22L151.246 27H149.206L153.046 21.86L149.426 17H151.486L154.066 20.48L156.646 17H158.686L155.086 21.84L158.906 27ZM167.559 29C166.093 26.0667 165.359 23.0667 165.359 20C165.359 16.9333 166.093 13.9333 167.559 11H169.299C167.833 13.9333 167.099 16.9333 167.099 20C167.099 23.0667 167.833 26.0667 169.299 29H167.559ZM173.765 13H175.365V27H173.525V15L170.545 15.88L170.085 14.28L173.765 13ZM182.334 18.46C183.654 18.46 184.767 18.8533 185.674 19.64C186.594 20.4133 187.054 21.4867 187.054 22.86C187.054 24.22 186.587 25.2933 185.654 26.08C184.72 26.8667 183.587 27.26 182.254 27.26C181.187 27.26 180.234 27.0067 179.394 26.5C178.554 25.98 177.967 25.2333 177.634 24.26L179.214 23.36C179.4 24.04 179.76 24.56 180.294 24.92C180.827 25.2667 181.48 25.44 182.254 25.44C183.134 25.44 183.847 25.2133 184.394 24.76C184.94 24.3067 185.214 23.6733 185.214 22.86C185.214 22.0467 184.94 21.4133 184.394 20.96C183.847 20.4933 183.147 20.26 182.294 20.26H178.334L178.854 13H186.514V14.74H180.534L180.294 18.46H182.334ZM187.958 13H196.698V14.66L191.598 27H189.658L194.718 14.76H187.958V13ZM199.642 29H197.902C199.369 26.0667 200.102 23.0667 200.102 20C200.102 16.9333 199.369 13.9333 197.902 11H199.642C201.109 13.9333 201.842 16.9333 201.842 20C201.842 23.0667 201.109 26.0667 199.642 29Z" fill="#AD7F00"/>
<path d="M0 31H203.002V32H0V31Z" fill="#AD7F00"/>
<path fill-rule="evenodd" clip-rule="evenodd" d="M227.205 20L220 12.4618L221.397 11L230 20L221.397 29L220 27.5382L227.205 20Z" fill="#AD7F00"/>
</svg>
